<svg width="56" height="56" viewBox="0 0 56 56" fill="none" xmlns="http://www.w3.org/2000/svg">
<circle cx="28" cy="28" r="28" fill="white"/>
<g clip-path="url(#clip0_395_4641)">
<path d="M34.3638 10.016C34.2959 9.94 31.8458 10.046 29.7139 12.36C27.5819 14.672 27.9099 17.324 27.9579 17.392C28.0059 17.46 30.9979 17.566 32.9079 14.876C34.8179 12.186 34.4319 10.094 34.3638 10.016ZM40.9918 33.482C40.8959 33.29 36.3419 31.014 36.7659 26.638C37.1898 22.26 40.1159 21.06 40.1618 20.93C40.2078 20.8 38.9678 19.35 37.6538 18.616C36.6891 18.0985 35.6213 17.802 34.5278 17.748C34.3118 17.742 33.5619 17.558 32.0198 17.98C31.0039 18.258 28.7139 19.158 28.0838 19.194C27.4518 19.23 25.5719 18.15 23.5499 17.864C22.2559 17.614 20.8839 18.126 19.9019 18.52C18.9219 18.912 17.0579 20.028 15.7539 22.994C14.4499 25.958 15.1319 30.654 15.6199 32.114C16.1079 33.572 16.8699 35.962 18.1659 37.706C19.3179 39.674 20.8459 41.04 21.4839 41.504C22.1219 41.968 23.9219 42.276 25.1699 41.638C26.1739 41.022 27.9859 40.668 28.7018 40.694C29.4158 40.72 30.8239 41.002 32.2659 41.772C33.4079 42.166 34.4879 42.002 35.5698 41.562C36.6518 41.12 38.2178 39.444 40.0458 36.046C40.7398 34.466 41.0559 33.612 40.9918 33.482Z" fill="black"/>
<path d="M34.3638 10.016C34.2959 9.94 31.8458 10.046 29.7139 12.36C27.5819 14.672 27.9099 17.324 27.9579 17.392C28.0059 17.46 30.9979 17.566 32.9079 14.876C34.8179 12.186 34.4319 10.094 34.3638 10.016ZM40.9918 33.482C40.8959 33.29 36.3419 31.014 36.7659 26.638C37.1898 22.26 40.1159 21.06 40.1618 20.93C40.2078 20.8 38.9678 19.35 37.6538 18.616C36.6891 18.0985 35.6213 17.802 34.5278 17.748C34.3118 17.742 33.5619 17.558 32.0198 17.98C31.0039 18.258 28.7139 19.158 28.0838 19.194C27.4518 19.23 25.5719 18.15 23.5499 17.864C22.2559 17.614 20.8839 18.126 19.9019 18.52C18.9219 18.912 17.0579 20.028 15.7539 22.994C14.4499 25.958 15.1319 30.654 15.6199 32.114C16.1079 33.572 16.8699 35.962 18.1659 37.706C19.3179 39.674 20.8459 41.04 21.4839 41.504C22.1219 41.968 23.9219 42.276 25.1699 41.638C26.1739 41.022 27.9859 40.668 28.7018 40.694C29.4158 40.72 30.8239 41.002 32.2659 41.772C33.4079 42.166 34.4879 42.002 35.5698 41.562C36.6518 41.12 38.2178 39.444 40.0458 36.046C40.7398 34.466 41.0559 33.612 40.9918 33.482Z" fill="black"/>
</g>
<defs>
<clipPath id="clip0_395_4641">
<rect width="32" height="32" fill="white" transform="translate(12 10)"/>
</clipPath>
</defs>
</svg>
