<svg width="56" height="56" viewBox="0 0 56 56" fill="none" xmlns="http://www.w3.org/2000/svg">
<circle cx="28" cy="28" r="28" fill="white"/>
<path d="M44.3427 24.7358H43.0002V24.6667H28.0002V31.3333H37.4193C36.0452 35.2142 32.3527 38 28.0002 38C22.4777 38 18.0002 33.5225 18.0002 28C18.0002 22.4775 22.4777 18 28.0002 18C30.5493 18 32.8685 18.9617 34.6343 20.5325L39.3485 15.8183C36.3718 13.0442 32.3902 11.3333 28.0002 11.3333C18.796 11.3333 11.3335 18.7958 11.3335 28C11.3335 37.2042 18.796 44.6667 28.0002 44.6667C37.2043 44.6667 44.6668 37.2042 44.6668 28C44.6668 26.8825 44.5518 25.7917 44.3427 24.7358Z" fill="#FFC107"/>
<path d="M13.2549 20.2425L18.7307 24.2583C20.2124 20.59 23.8007 18 27.9999 18C30.5491 18 32.8682 18.9617 34.6341 20.5325L39.3482 15.8183C36.3716 13.0442 32.3899 11.3333 27.9999 11.3333C21.5982 11.3333 16.0465 14.9475 13.2549 20.2425Z" fill="#FF3D00"/>
<path d="M28.0001 44.6667C32.3051 44.6667 36.2168 43.0192 39.1743 40.34L34.0159 35.975C32.2864 37.2903 30.173 38.0017 28.0001 38C23.6651 38 19.9843 35.2358 18.5976 31.3783L13.1626 35.5658C15.9209 40.9633 21.5226 44.6667 28.0001 44.6667Z" fill="#4CAF50"/>
<path d="M44.3425 24.7358H43V24.6667H28V31.3333H37.4192C36.7618 33.1803 35.5778 34.7943 34.0133 35.9758L34.0158 35.9742L39.1742 40.3392C38.8092 40.6708 44.6667 36.3333 44.6667 28C44.6667 26.8825 44.5517 25.7917 44.3425 24.7358Z" fill="#1976D2"/>
</svg>
