<svg width="48" height="20" viewBox="0 0 48 20" fill="none" xmlns="http://www.w3.org/2000/svg">
<path d="M8.76874 2.57865C8.20467 3.25305 7.30606 3.78745 6.40895 3.70917C6.29044 2.79994 6.73749 1.82598 7.25356 1.22234C7.81612 0.534397 8.80024 0.0406443 9.59834 0C9.69285 0.949872 9.32381 1.88319 8.77024 2.57865H8.76874ZM9.58934 3.8883C8.28568 3.80852 7.16655 4.63947 6.54847 4.63947C5.91689 4.63947 4.97028 3.92744 3.93965 3.95153C2.60299 3.96809 1.35334 4.73431 0.673758 5.96718C-0.740913 8.41939 0.306214 12.0503 1.66538 14.0494C2.32996 15.0369 3.12506 16.1192 4.17368 16.0891C5.1653 16.0485 5.56435 15.4313 6.76 15.4313C7.97064 15.4313 8.31418 16.0891 9.37031 16.065C10.4549 16.0485 11.142 15.0775 11.8066 14.09C12.5642 12.9685 12.8762 11.8696 12.8927 11.8154C12.8762 11.7914 10.791 10.9845 10.776 8.55336C10.7595 6.51362 12.4157 5.54268 12.4862 5.48698C11.5561 4.07647 10.0874 3.92744 9.58784 3.88981L9.58934 3.8883ZM17.1143 1.1275V15.9627H19.387V10.8912H22.5299C25.3968 10.8912 27.413 8.89207 27.413 6.00632C27.413 3.11456 25.4373 1.12901 22.6079 1.12901L17.1143 1.1275ZM19.387 3.07241H22.0048C23.9731 3.07241 25.0997 4.13819 25.0997 6.01234C25.0997 7.8865 23.9731 8.96131 21.9898 8.96131H19.387V3.07241ZM31.552 16.0726C32.9817 16.0726 34.3018 15.344 34.9049 14.1818H34.9529V15.9627H37.0532V8.57594C37.0532 6.44438 35.367 5.05796 32.7642 5.05796C30.3579 5.05796 28.5756 6.46094 28.5141 8.38176H30.5529C30.7254 7.465 31.5535 6.86888 32.7026 6.86888C34.0933 6.86888 34.8674 7.52672 34.8674 8.73551V9.5499L32.0396 9.72302C29.3977 9.8871 27.9756 10.977 27.9756 12.8827C27.9756 14.8036 29.4457 16.0741 31.5535 16.0741L31.552 16.0726ZM32.1701 14.3158C30.9579 14.3158 30.1853 13.7272 30.1853 12.827C30.1853 11.8937 30.9279 11.3443 32.3411 11.257L34.8659 11.1004V11.9389C34.8659 13.3283 33.7018 14.3158 32.1611 14.3158H32.1701ZM39.8585 20C42.0683 20 43.1094 19.1374 44.0155 16.5422L48 5.20548H45.6957L43.0239 13.9621H42.9759L40.3041 5.20548H37.9293L41.7742 16.0018L41.5702 16.6596C41.2177 17.7661 40.6566 18.1951 39.656 18.1951C39.476 18.1951 39.1324 18.1725 38.9914 18.1575V19.9383C39.1234 19.9759 39.6875 19.9925 39.851 19.9925L39.8585 20Z" fill="#0A0909"/>
</svg>
