<svg width="28" height="28" viewBox="0 0 28 28" fill="none" xmlns="http://www.w3.org/2000/svg">
<path d="M22.1669 21C23.2499 21 24.2885 20.5698 25.0543 19.804C25.82 19.0382 26.2502 17.9996 26.2502 16.9167C26.2502 15.8337 25.82 14.7951 25.0543 14.0293C24.2885 13.2635 23.2499 12.8333 22.1669 12.8333H21.0002C21.1705 12.0749 21.1731 11.2938 21.0079 10.5345C20.8427 9.77524 20.5129 9.05267 20.0375 8.40808C19.562 7.76348 18.9501 7.20949 18.2367 6.77772C17.5234 6.34595 16.7225 6.04487 15.8799 5.89166C15.0372 5.73845 14.1693 5.73612 13.3256 5.88479C12.482 6.03347 11.6791 6.33024 10.9629 6.75816C9.51646 7.62239 8.5107 8.96837 8.1669 10.5C6.92318 10.4502 5.70003 10.8155 4.70688 11.5333C3.71373 12.2512 3.01236 13.2769 2.72285 14.435C2.43334 15.593 2.5737 16.8113 3.1199 17.8812C3.6661 18.9512 4.58416 19.8062 5.7169 20.3" stroke="#B3B3B3" stroke-width="2" stroke-linecap="round" stroke-linejoin="round"/>
<path d="M14 15.1667V25.6667" stroke="#B3B3B3" stroke-width="2" stroke-linecap="round" stroke-linejoin="round"/>
<path d="M10.5 22.1667L14 25.6667L17.5 22.1667" stroke="#B3B3B3" stroke-width="2" stroke-linecap="round" stroke-linejoin="round"/>
</svg>
