<svg width="50" height="18" viewBox="0 0 50 18" fill="none" xmlns="http://www.w3.org/2000/svg">
<path d="M49.3002 4.00078L42.9566 18H40.9945L43.3515 13.1011L39.1751 3.99928H41.239L44.2612 10.9756H44.3007L47.2272 3.99928L49.3002 4.00078ZM22.9448 8.32969V14.0011H20.9508V0.00185478H26.2267C27.4791 -0.0320526 28.6987 0.39998 29.6438 1.21233C30.5778 1.96982 31.0911 3.04079 31.0759 4.17327C31.0823 4.74319 30.9566 5.307 30.7084 5.82153C30.4602 6.33606 30.096 6.78765 29.6438 7.14171C28.7265 7.9382 27.5875 8.32969 26.2267 8.32969H22.9448ZM22.9373 1.72832V6.61072H26.2753C27.002 6.63647 27.7097 6.37832 28.2451 5.89224C28.7599 5.43925 29.0439 4.82126 29.0439 4.18077C29.0439 3.53279 28.7584 2.9148 28.2451 2.46931C27.9829 2.22286 27.6738 2.03031 27.3356 1.90285C26.9975 1.77539 26.6371 1.71555 26.2753 1.72682L22.9373 1.72832ZM35.0701 4.00078C36.3351 4.00078 37.3405 4.35177 38.0756 5.04776C38.8106 5.74374 39.1751 6.69622 39.1751 7.9067V13.6951H37.5303V12.3901H37.459C36.7467 13.4611 35.8051 13.9996 34.6266 13.9996C33.6136 13.9996 32.7753 13.6951 32.095 13.0771C31.7667 12.7901 31.5054 12.4361 31.3292 12.0396C31.153 11.6431 31.0661 11.2136 31.0744 10.7806C31.0744 9.81166 31.4298 9.03918 32.1496 8.46019C32.8619 7.8902 33.8187 7.6007 35.0124 7.6007C36.0329 7.6007 36.8712 7.7957 37.5273 8.17819V7.7717C37.5294 7.47662 37.4677 7.18451 37.3461 6.91494C37.2246 6.64538 37.0461 6.40459 36.8226 6.20873C36.3725 5.7926 35.7777 5.56329 35.1612 5.56824C34.2044 5.56824 33.4451 5.98224 32.8832 6.81022L31.3721 5.84124C32.2028 4.61426 33.436 3.99778 35.0655 3.99778L35.0701 4.00078ZM32.8482 10.8211C32.8448 11.0434 32.8947 11.2634 32.9936 11.463C33.0926 11.6627 33.2379 11.8364 33.4177 11.9701C33.7974 12.2746 34.2728 12.4396 34.7542 12.4306C35.474 12.4306 36.1696 12.1336 36.6844 11.6101C37.2296 11.1106 37.5395 10.4071 37.5395 9.67216C37.0018 9.23417 36.2577 9.01518 35.3009 9.01518C34.5962 9.01518 34.0191 9.18767 33.5529 9.53117C33.0867 9.88216 32.8482 10.3052 32.8482 10.8196V10.8211ZM8.96834 0.00185478C11.0131 -0.0225029 12.9904 0.723599 14.4979 2.08831L12.1409 4.36977C11.2799 3.58078 10.1426 3.15226 8.96834 3.17429C7.94357 3.17925 6.94582 3.49941 6.11379 4.09027C5.28175 4.68114 4.65676 5.51335 4.3257 6.47123C3.97785 7.4633 3.97785 8.54209 4.3257 9.53417C4.65676 10.492 5.28175 11.3243 6.11379 11.9151C6.94582 12.506 7.94357 12.8261 8.96834 12.8311C10.0831 12.8311 11.0414 12.5581 11.784 12.0736C12.2112 11.7988 12.5774 11.441 12.8602 11.022C13.1429 10.6029 13.3364 10.1314 13.4287 9.63616H8.96682V6.55823H16.7577C16.8534 7.09671 16.9005 7.6367 16.9005 8.18269C16.9005 10.6201 15.9984 12.6826 14.4402 14.0731C13.0718 15.2926 11.1978 16.002 8.96682 16.002C7.44404 16.0097 5.94863 15.6024 4.64509 14.8249C3.34155 14.0474 2.28041 12.9298 1.57839 11.5951C1.00121 10.4829 0.700195 9.25101 0.700195 8.0012C0.700195 6.75138 1.00121 5.5195 1.57839 4.40727C2.27957 3.07385 3.33925 1.95709 4.64106 1.17965C5.94287 0.402215 7.43644 -0.0058231 8.95771 0.000355632L8.96834 0.00185478Z" fill="white"/>
</svg>
