<svg width="28" height="28" viewBox="0 0 28 28" fill="none" xmlns="http://www.w3.org/2000/svg">
<path d="M4.66683 4.83333H3.66683V5.83333V22.1667V23.1667H4.66683H23.3335H24.3335V22.1667V5.83333V4.83333H23.3335H4.66683ZM3.38231 23.4512L2.68135 24.1521L3.38231 23.4512C3.35106 23.4199 3.3335 23.3775 3.3335 23.3333V4.66667C3.3335 4.62246 3.35106 4.58007 3.38231 4.54882C3.41357 4.51756 3.45596 4.5 3.50016 4.5H24.5002C24.5444 4.5 24.5868 4.51756 24.618 4.54881C24.6493 4.58007 24.6668 4.62247 24.6668 4.66667V23.3333C24.6668 23.3775 24.6493 23.4199 24.618 23.4512C24.5868 23.4824 24.5444 23.5 24.5002 23.5H3.50016C3.45596 23.5 3.41357 23.4824 3.38231 23.4512Z" fill="black" stroke="#B3B3B3" stroke-width="2"/>
</svg>
