<svg width="28" height="28" viewBox="0 0 28 28" fill="none" xmlns="http://www.w3.org/2000/svg">
<path d="M22.1667 5.83333H5.83333C4.54467 5.83333 3.5 6.878 3.5 8.16667V19.8333C3.5 21.122 4.54467 22.1667 5.83333 22.1667H22.1667C23.4553 22.1667 24.5 21.122 24.5 19.8333V8.16667C24.5 6.878 23.4553 5.83333 22.1667 5.83333Z" stroke="#B3B3B3" stroke-width="2" stroke-linecap="round" stroke-linejoin="round"/>
<path d="M8.1665 17.5V12.8333C8.1665 12.2145 8.41234 11.621 8.84992 11.1834C9.28751 10.7458 9.881 10.5 10.4998 10.5C11.1187 10.5 11.7122 10.7458 12.1498 11.1834C12.5873 11.621 12.8332 12.2145 12.8332 12.8333V17.5" stroke="#B3B3B3" stroke-width="2" stroke-linecap="round" stroke-linejoin="round"/>
<path d="M8.1665 15.1667H12.8332" stroke="#B3B3B3" stroke-width="2" stroke-linecap="round" stroke-linejoin="round"/>
<path d="M19.8335 10.5V17.5H18.0835C17.7374 17.5 17.399 17.3974 17.1112 17.2051C16.8235 17.0128 16.5992 16.7395 16.4667 16.4197C16.3343 16.0999 16.2996 15.7481 16.3671 15.4086C16.4346 15.0691 16.6013 14.7573 16.8461 14.5126C17.0908 14.2678 17.4026 14.1011 17.7421 14.0336C18.0816 13.9661 18.4334 14.0008 18.7532 14.1332C19.073 14.2657 19.3463 14.49 19.5386 14.7778C19.7309 15.0655 19.8335 15.4039 19.8335 15.75" stroke="#B3B3B3" stroke-width="2" stroke-linecap="round" stroke-linejoin="round"/>
<path d="M3.5 3.5L24.5 24.5" stroke="black" stroke-width="2" stroke-linecap="round" stroke-linejoin="round"/>
<path d="M2.3335 4.66667L23.3335 25.6667" stroke="#B3B3B3" stroke-width="2" stroke-linecap="round" stroke-linejoin="round"/>
</svg>
